<svg width="28" height="29" viewBox="0 0 28 29" fill="none" xmlns="http://www.w3.org/2000/svg">
<path d="M19.8917 24.16C18.7484 25.2683 17.5 25.0933 16.2984 24.5683C15.0267 24.0317 13.86 24.0083 12.5184 24.5683C10.8384 25.2917 9.9517 25.0817 8.94836 24.16C3.25503 18.2917 4.09503 9.355 10.5584 9.02833C12.1334 9.11 13.23 9.89167 14.1517 9.96167C15.5284 9.68167 16.8467 8.87667 18.3167 8.98167C20.0784 9.12167 21.4084 9.82167 22.2834 11.0817C18.6434 13.2633 19.5067 18.0583 22.8434 19.4C22.1784 21.15 21.315 22.8883 19.88 24.1717L19.8917 24.16ZM14.035 8.95833C13.86 6.35667 15.9717 4.21 18.3984 4C18.7367 7.01 15.6684 9.25 14.035 8.95833Z" fill="white"/>
</svg>
