<svg width="20" height="21" viewBox="0 0 20 21" fill="none" xmlns="http://www.w3.org/2000/svg">
<g clip-path="url(#clip0_13_14)">
<path d="M19.4312 8.69761C19.548 9.36879 19.6061 10.0489 19.605 10.7301C19.605 13.7726 18.5175 16.3451 16.625 18.0864H16.6275C14.9725 19.6151 12.6975 20.5001 10 20.5001C7.34784 20.5001 4.8043 19.4465 2.92893 17.5712C1.05357 15.6958 0 13.1523 0 10.5001C0 7.84794 1.05357 5.3044 2.92893 3.42904C4.8043 1.55368 7.34784 0.500109 10 0.500109C12.4822 0.472467 14.879 1.40488 16.69 3.10261L13.835 5.95761C12.8028 4.97417 11.4255 4.4355 10 4.45761C7.39125 4.45761 5.175 6.21761 4.385 8.58761C3.96687 9.82961 3.96687 11.1744 4.385 12.4164H4.38875C5.1825 14.7826 7.395 16.5426 10.0037 16.5426C11.3513 16.5426 12.5088 16.1976 13.4062 15.5876H13.4025C13.9237 15.2425 14.3696 14.7952 14.7131 14.273C15.0567 13.7507 15.2908 13.1642 15.4012 12.5489H10V8.69886L19.4312 8.69761Z" fill="white"/>
</g>
<defs>
<clipPath id="clip0_13_14">
<rect width="20" height="20" fill="white" transform="translate(0 0.5)"/>
</clipPath>
</defs>
</svg>
