<svg width="28" height="28" viewBox="0 0 28 28" fill="none" xmlns="http://www.w3.org/2000/svg">
<path d="M24.0625 3.0625C23.9586 3.0625 23.852 3.08164 23.7453 3.12539L7.98438 9.4582H3.5C3.25937 9.4582 3.0625 9.66055 3.0625 9.91211V18.0879C3.0625 18.3395 3.25937 18.5418 3.5 18.5418H6.27813C6.17695 18.859 6.125 19.1953 6.125 19.5371C6.125 21.3391 7.59609 22.8047 9.40625 22.8047C10.9211 22.8047 12.198 21.7766 12.5754 20.3875L23.748 24.8773C23.8547 24.9184 23.9613 24.9402 24.0652 24.9402C24.5273 24.9402 24.9402 24.552 24.9402 24.0324V3.97031C24.9375 3.45078 24.5273 3.0625 24.0625 3.0625ZM9.40625 20.8441C8.68164 20.8441 8.09375 20.259 8.09375 19.5371C8.09375 19.2309 8.20039 18.9383 8.39453 18.7059L10.716 19.6383C10.6613 20.3109 10.0953 20.8441 9.40625 20.8441Z" fill="white"/>
</svg>
